<svg xmlns="http://www.w3.org/2000/svg" width="109" height="104" viewBox="0 0 109 104">
  <g id="adobe-indesign" transform="translate(-8 -12)">
    <g id="Photo_Surface" data-name="Photo Surface" transform="translate(8 12)">
      <rect id="Outline_no_shadow" data-name="Outline no shadow" width="109" height="104" transform="translate(0 0)" fill="#49021f"/>
    </g>
    <path id="Tracé_25" data-name="Tracé 25" d="M84.959,74.686v46.845c0,.448-.2.672-.6.672H76.594c-.4,0-.6-.224-.6-.672V74.686a.529.529,0,0,1,.6-.6h7.84C84.784,74.085,84.959,74.287,84.959,74.686ZM108.2,123.1c-5.2,0-9.208-1.475-12.319-4.42s-4.671-7.3-4.671-13.063a17.55,17.55,0,0,1,5.016-12.91,17.962,17.962,0,0,1,13.229-5.469,13.278,13.278,0,0,1,3.272.35V72.417a.372.372,0,0,1,.417-.421h8.2c.233,0,.35.139.35.421v42.474c0,1.793.776,3.322.9,4.631a.565.565,0,0,1-.35.632A33.552,33.552,0,0,1,108.2,123.1Zm4.528-6.944V94.473c-.291-.511-1.833-.959-3.411-.959a8.791,8.791,0,0,0-6.9,3.071,13.108,13.108,0,0,0-3.138,8.7,11.857,11.857,0,0,0,3.1,8.486,8.912,8.912,0,0,0,6.657,3.057C110.707,116.824,112.344,116.573,112.725,116.156Z" transform="translate(-37.51 -33.1)" fill="#f36"/>
  </g>
</svg>
