<svg xmlns="http://www.w3.org/2000/svg" width="108" height="104" viewBox="0 0 108 104">
  <g id="adobe-illustrator" transform="translate(-8 -12)">
    <g id="Photo_Surface" data-name="Photo Surface" transform="translate(8 12)">
      <rect id="Outline_no_shadow" data-name="Outline no shadow" width="108" height="104" transform="translate(0 0)" fill="#300"/>
    </g>
    <path id="Tracé_24" data-name="Tracé 24" d="M93.045,109.647H77l-4.142,11.96q-.072.592-.749.592H64.579q-.753,0-.524-.74L78.588,78.294a13.224,13.224,0,0,0,.6-4.061.4.4,0,0,1,.448-.448H90.18c.3,0,.48.126.529.368l16.263,47.383c.152.448.027.663-.377.663H98.164a.78.78,0,0,1-.753-.448Zm-14.251-8.069h12.5c-.3-.659-5.922-18.8-6.325-20.325h-.072ZM115.96,82.75a5.294,5.294,0,0,1-3.86-1.439,5.178,5.178,0,0,1-1.479-3.9,5.249,5.249,0,0,1,1.52-3.94,5.379,5.379,0,0,1,3.9-1.479,5.178,5.178,0,0,1,3.9,1.479,5.411,5.411,0,0,1,1.439,3.94,5.178,5.178,0,0,1-1.479,3.9,5.411,5.411,0,0,1-3.94,1.439Zm-4.442,38.776V86.937a.529.529,0,0,1,.6-.6h7.764a.533.533,0,0,1,.6.6V121.6a.529.529,0,0,1-.6.6H112.19a.6.6,0,0,1-.672-.672Z" transform="translate(-30.897 -33.095)" fill="#ff9a00"/>
  </g>
</svg>
