<svg xmlns="http://www.w3.org/2000/svg" width="108" height="104" viewBox="0 0 108 104">
  <g id="adobe-xd" transform="translate(-8 -12)">
    <g id="Photo_Surface" data-name="Photo Surface" transform="translate(8 12)">
      <rect id="Outline_no_shadow" data-name="Outline no shadow" width="108" height="104" transform="translate(0 0)" fill="#470137"/>
    </g>
    <path id="Tracé_27" data-name="Tracé 27" d="M83.156,74.524,69.923,97.261l14.26,24.207c.291.493.166.735-.368.735H74.921a1.1,1.1,0,0,1-1.094-.587L63.791,103.205h-.076l-9.772,18.411a1.08,1.08,0,0,1-.95.587H44.439c-.489,0-.583-.242-.291-.735L58.169,97.924,44.811,74.376c-.291-.39-.193-.587.291-.587h8.912a1,1,0,0,1,.95.516L64.378,92.5h.072L73.814,74.3a1,1,0,0,1,.946-.516h8.1C83.4,73.789,83.5,74.036,83.156,74.524ZM104.9,123.1c-5.2,0-9.2-1.475-12.31-4.42s-4.667-7.3-4.667-13.063a17.559,17.559,0,0,1,5.012-12.91,17.931,17.931,0,0,1,13.215-5.469,13.278,13.278,0,0,1,3.272.35V72.417a.372.372,0,0,1,.417-.421h8.194c.229,0,.345.139.345.421v42.474c0,1.793.776,3.322.9,4.631a.565.565,0,0,1-.35.632A33.49,33.49,0,0,1,104.9,123.1Zm4.541-6.944V94.473c-.291-.511-1.833-.959-3.411-.959a8.777,8.777,0,0,0-6.9,3.071,13.108,13.108,0,0,0-3.138,8.7,11.875,11.875,0,0,0,3.1,8.486,8.921,8.921,0,0,0,6.643,3.057C107.4,116.824,109.04,116.573,109.439,116.156Z" transform="translate(-19.852 -33.1)" fill="#ff61f6"/>
  </g>
</svg>
