<svg xmlns="http://www.w3.org/2000/svg" width="39.073" height="39.073" viewBox="0 0 39.073 39.073">
  <path id="Icon_awesome-github-square" data-name="Icon awesome-github-square" d="M34.886,2.25H4.186A4.187,4.187,0,0,0,0,6.436v30.7a4.187,4.187,0,0,0,4.186,4.186h30.7a4.187,4.187,0,0,0,4.186-4.186V6.436A4.187,4.187,0,0,0,34.886,2.25Zm-10.7,33.465c-.733.131-1-.323-1-.7,0-.471.017-2.878.017-4.823a3.4,3.4,0,0,0-.986-2.678c3.227-.358,6.628-.8,6.628-6.375a4.478,4.478,0,0,0-1.491-3.4,5.455,5.455,0,0,0-.148-3.925c-1.212-.375-3.986,1.561-3.986,1.561a13.72,13.72,0,0,0-7.256,0s-2.773-1.936-3.986-1.561a5.413,5.413,0,0,0-.148,3.925,4.38,4.38,0,0,0-1.361,3.4c0,5.547,3.253,6.018,6.48,6.375a3.161,3.161,0,0,0-.924,1.945,3.06,3.06,0,0,1-4.213-1.212,3.038,3.038,0,0,0-2.224-1.491c-1.413-.017-.1.89-.1.89.942.436,1.6,2.111,1.6,2.111.846,2.59,4.893,1.718,4.893,1.718,0,1.212.017,3.183.017,3.541,0,.375-.262.829-1,.7A14.469,14.469,0,0,1,5.215,21.908,13.841,13.841,0,0,1,19.344,7.823a14.15,14.15,0,0,1,14.5,14.085A14.336,14.336,0,0,1,24.185,35.715Zm-8.556-5.329c-.166.035-.323-.035-.34-.148-.017-.131.1-.244.262-.279.166-.017.323.052.34.166S15.8,30.351,15.629,30.386Zm-.829-.078c0,.113-.131.209-.305.209-.192.017-.323-.078-.323-.209,0-.113.131-.209.305-.209C14.644,30.081,14.8,30.176,14.8,30.307Zm-1.195-.1c-.035.113-.209.166-.358.113-.166-.035-.279-.166-.244-.279s.209-.166.358-.131C13.536,29.967,13.649,30.1,13.606,30.211Zm-1.073-.471c-.078.1-.244.078-.375-.052-.131-.113-.166-.279-.078-.358.078-.1.244-.078.375.052C12.568,29.5,12.611,29.671,12.533,29.74Zm-.794-.794c-.078.052-.227,0-.323-.131s-.1-.279,0-.34c.1-.078.244-.017.323.113A.255.255,0,0,1,11.739,28.947Zm-.567-.846c-.078.078-.209.035-.305-.052-.1-.113-.113-.244-.035-.305.078-.078.209-.035.305.052C11.233,27.909,11.251,28.04,11.172,28.1Zm-.584-.645a.164.164,0,0,1-.244.035c-.113-.052-.166-.148-.131-.227a.205.205,0,0,1,.244-.035C10.571,27.29,10.623,27.386,10.588,27.455Z" transform="translate(0 -2.25)" fill="#e5313b"/>
</svg>
