<svg xmlns="http://www.w3.org/2000/svg" width="38.777" height="38.777" viewBox="0 0 38.777 38.777">
  <path id="Icon_awesome-linkedin" data-name="Icon awesome-linkedin" d="M36.007,2.25H2.761A2.782,2.782,0,0,0,0,5.046V38.231a2.782,2.782,0,0,0,2.761,2.8H36.007a2.789,2.789,0,0,0,2.77-2.8V5.046A2.789,2.789,0,0,0,36.007,2.25ZM11.72,35.488H5.972V16.982h5.756V35.488ZM8.846,14.454a3.332,3.332,0,1,1,3.332-3.332A3.334,3.334,0,0,1,8.846,14.454ZM33.264,35.488H27.516v-9c0-2.147-.043-4.908-2.986-4.908-2.995,0-3.454,2.337-3.454,4.752v9.158H15.329V16.982h5.514v2.527h.078a6.054,6.054,0,0,1,5.444-2.986c5.817,0,6.9,3.834,6.9,8.82Z" transform="translate(0 -2.25)" fill="#e5313b"/>
</svg>
