<svg xmlns="http://www.w3.org/2000/svg" width="38.914" height="38.905" viewBox="0 0 38.914 38.905">
  <path id="Icon_awesome-instagram" data-name="Icon awesome-instagram" d="M19.456,11.715a9.975,9.975,0,1,0,9.975,9.975A9.959,9.959,0,0,0,19.456,11.715Zm0,16.46a6.485,6.485,0,1,1,6.485-6.485A6.5,6.5,0,0,1,19.456,28.175ZM32.165,11.307a2.327,2.327,0,1,1-2.327-2.327A2.321,2.321,0,0,1,32.165,11.307Zm6.606,2.361c-.148-3.117-.859-5.877-3.143-8.152s-5.035-2.986-8.152-3.143c-3.212-.182-12.84-.182-16.052,0-3.108.148-5.869.859-8.152,3.134S.288,10.543.131,13.66c-.182,3.212-.182,12.84,0,16.052.148,3.117.859,5.877,3.143,8.152s5.035,2.986,8.152,3.143c3.212.182,12.84.182,16.052,0,3.117-.148,5.877-.859,8.152-3.143s2.986-5.035,3.143-8.152c.182-3.212.182-12.831,0-16.043Zm-4.15,19.489a6.565,6.565,0,0,1-3.7,3.7c-2.561,1.016-8.638.781-11.468.781s-8.916.226-11.468-.781a6.565,6.565,0,0,1-3.7-3.7C3.274,30.6,3.508,24.52,3.508,21.69s-.226-8.916.781-11.468a6.565,6.565,0,0,1,3.7-3.7c2.561-1.016,8.638-.781,11.468-.781s8.916-.226,11.468.781a6.565,6.565,0,0,1,3.7,3.7c1.016,2.561.781,8.638.781,11.468S35.638,30.606,34.622,33.158Z" transform="translate(0.005 -2.238)" fill="#e5313b"/>
</svg>
