<svg xmlns="http://www.w3.org/2000/svg" width="371.23" height="170.16" viewBox="0 0 371.23 170.16">
  <defs>
    <style>
      .cls-1 {
        fill: #fff;
      }
    </style>
  </defs>
  <g id="Calque_2" data-name="Calque 2">
    <g id="Calque_1-2" data-name="Calque 1">
      <g id="LaManuFull_RVB_white">
        <g>
          <path class="cls-1" d="M155.16,123.1h7.29v1.46h-5.68v6.54h4.66v1.45h-4.66v7.29h5.68v1.49h-7.29Zm4.34-4.71h1.85L159,121.62h-1.3Z"/>
          <path class="cls-1" d="M164.19,137.29V127.11c0-2.65,1.43-4.27,4-4.27s4,1.62,4,4.27V129h-1.53v-2c0-1.77-1-2.73-2.45-2.73s-2.37,1-2.37,2.73V137.4c0,1.76.91,2.7,2.37,2.7s2.45-.94,2.45-2.7v-2.48h1.53v2.37c0,2.68-1.43,4.3-4,4.3S164.19,140,164.19,137.29Z"/>
          <path class="cls-1" d="M174.18,137.13v-9.84c0-2.89,1.46-4.45,4.09-4.45s4.09,1.56,4.09,4.45v9.84c0,2.89-1.46,4.46-4.09,4.46S174.18,140,174.18,137.13Zm6.56.11V127.19c0-2-.88-2.89-2.47-2.89s-2.47.94-2.47,2.89v10.05c0,1.95.88,2.86,2.47,2.86S180.74,139.19,180.74,137.24Z"/>
          <path class="cls-1" d="M184.8,123.1h1.62v16.74h5.44v1.49H184.8Z"/>
          <path class="cls-1" d="M193.68,123.1H201v1.46h-5.68v6.54H200v1.45h-4.66v7.29H201v1.49h-7.29Z"/>
          <path class="cls-1" d="M206.64,137.26v-1h1.54v1.12c0,1.82.94,2.73,2.45,2.73s2.44-.91,2.44-2.76-.73-2.89-3-4.68c-2.58-2.06-3.44-3.49-3.44-5.57,0-2.66,1.46-4.25,4-4.25s3.93,1.59,3.93,4.32v.73h-1.53v-.83c0-1.82-.89-2.76-2.4-2.76s-2.39,1-2.39,2.68.78,2.74,3,4.56c2.58,2.08,3.39,3.49,3.39,5.7,0,2.76-1.46,4.35-4.06,4.35S206.64,140,206.64,137.26Z"/>
          <path class="cls-1" d="M216.67,137.13v-14h1.61v14.14c0,1.95.88,2.86,2.45,2.86s2.44-.91,2.44-2.86V123.1h1.57v14c0,2.87-1.41,4.46-4,4.46S216.67,140,216.67,137.13Z"/>
          <path class="cls-1" d="M227.29,123.1h3.85c2.78,0,4.06,1.43,4.06,4.38v1.45c0,2.95-1.28,4.38-4.06,4.38H228.9v8h-1.61Zm3.85,8.72c1.69,0,2.45-.75,2.45-2.81v-1.64c0-2-.76-2.81-2.45-2.81H228.9v7.26Z"/>
          <path class="cls-1" d="M237.23,123.1h7.29v1.46h-5.68v6.54h4.66v1.45h-4.66v7.29h5.68v1.49h-7.29Zm4.35-4.71h1.85l-2.37,3.23h-1.31Z"/>
          <path class="cls-1" d="M246.44,123.1h3.88c2.84,0,4,1.28,4,4.14v1.12c0,2-.7,3.26-2.21,3.67v.05c1.58.37,2.21,1.59,2.21,3.75v3.31a7.2,7.2,0,0,0,.26,2.19H253a8.29,8.29,0,0,1-.24-2.22v-3.36c0-2.1-.78-2.83-2.7-2.83h-2v8.41h-1.62Zm3.57,8.31c1.85,0,2.73-.78,2.73-2.76v-1.28c0-2-.7-2.81-2.47-2.81h-2.21v6.85Z"/>
          <path class="cls-1" d="M256.83,123.1h1.61v18.23h-1.61Z"/>
          <path class="cls-1" d="M261.1,123.1h7.29v1.46h-5.68v6.54h4.66v1.45h-4.66v7.29h5.68v1.49H261.1Z"/>
          <path class="cls-1" d="M270.24,137.13v-14h1.61v14.14c0,1.95.88,2.86,2.45,2.86s2.44-.91,2.44-2.86V123.1h1.56v14c0,2.87-1.4,4.46-4,4.46S270.24,140,270.24,137.13Z"/>
          <path class="cls-1" d="M280.86,123.1h3.87c2.84,0,4,1.28,4,4.14v1.12c0,2-.7,3.26-2.21,3.67v.05c1.58.37,2.21,1.59,2.21,3.75v3.31a7.2,7.2,0,0,0,.26,2.19h-1.64a8.39,8.39,0,0,1-.23-2.22v-3.36c0-2.1-.79-2.83-2.71-2.83h-2v8.41h-1.61Zm3.56,8.31c1.85,0,2.74-.78,2.74-2.76v-1.28c0-2-.71-2.81-2.48-2.81h-2.21v6.85Z"/>
          <path class="cls-1" d="M291.24,123.1h7.29v1.46h-5.67v6.54h4.66v1.45h-4.66v7.29h5.67v1.49h-7.29Z"/>
          <path class="cls-1" d="M155.16,149.13h4.06c2.78,0,4.06,1.44,4.06,4.38V163c0,3-1.28,4.4-4.06,4.4h-4.06Zm4,16.74c1.69,0,2.47-.78,2.47-2.84v-9.57c0-2.06-.78-2.87-2.47-2.87h-2.42v15.28Z"/>
          <path class="cls-1" d="M165.7,149.13H173v1.46h-5.68v6.54H172v1.45h-4.66v7.29H173v1.49H165.7Z"/>
          <path class="cls-1" d="M174.42,163.3v-1H176v1.12c0,1.82.94,2.73,2.45,2.73s2.45-.91,2.45-2.76-.73-2.89-3-4.68c-2.58-2.06-3.44-3.49-3.44-5.57,0-2.66,1.46-4.25,4-4.25s3.93,1.59,3.93,4.32v.73h-1.54v-.83c0-1.82-.88-2.76-2.39-2.76s-2.4,1-2.4,2.68.78,2.74,3.05,4.56c2.58,2.08,3.38,3.49,3.38,5.7,0,2.76-1.46,4.35-4.06,4.35S174.42,166,174.42,163.3Z"/>
          <path class="cls-1" d="M188.84,149.13h2.42l3.05,15.23,3-15.23h2.42v18.23h-1.58V151.48L195,167.36h-1.41l-3.25-15.88v15.88h-1.46Z"/>
          <path class="cls-1" d="M202.43,149.13h7.29v1.46H204v6.54h4.66v1.45H204v7.29h5.68v1.49h-7.29Zm4.34-4.71h1.85l-2.37,3.23H205Z"/>
          <path class="cls-1" d="M214.14,150.59h-3.33v-1.46h8.3v1.46h-3.36v16.77h-1.61Z"/>
          <path class="cls-1" d="M220.93,149.13h1.62v18.23h-1.62Z"/>
          <path class="cls-1" d="M225.2,149.13h7.29v1.46h-5.67v6.54h4.66v1.45h-4.66v7.29h5.67v1.49H225.2Z"/>
          <path class="cls-1" d="M234.42,149.13h3.88c2.83,0,4,1.28,4,4.14v1.12c0,2-.7,3.26-2.21,3.67v.05c1.59.37,2.21,1.59,2.21,3.75v3.31a7.2,7.2,0,0,0,.26,2.19H241a8.39,8.39,0,0,1-.23-2.22v-3.35c0-2.11-.78-2.84-2.71-2.84h-2v8.41h-1.61Zm3.56,8.31c1.85,0,2.74-.78,2.74-2.76V153.4c0-2-.7-2.81-2.48-2.81H236v6.85Z"/>
          <path class="cls-1" d="M244.26,163.3v-1h1.53v1.12c0,1.82.94,2.73,2.45,2.73s2.45-.91,2.45-2.76-.73-2.89-3-4.68c-2.57-2.06-3.43-3.49-3.43-5.57,0-2.66,1.45-4.25,4-4.25s3.93,1.59,3.93,4.32v.73h-1.54v-.83c0-1.82-.88-2.76-2.39-2.76s-2.4,1-2.4,2.68.78,2.74,3,4.56c2.57,2.08,3.38,3.49,3.38,5.7,0,2.76-1.46,4.35-4.06,4.35S244.26,166,244.26,163.3Z"/>
          <path class="cls-1" d="M258.68,149.13h4.06c2.78,0,4.06,1.44,4.06,4.38V163c0,3-1.28,4.4-4.06,4.4h-4.06Zm4,16.74c1.7,0,2.48-.78,2.48-2.84v-9.57c0-2.06-.78-2.87-2.48-2.87h-2.42v15.28Z"/>
          <path class="cls-1" d="M269.12,163.17v-14h1.61v14.14c0,1.95.89,2.86,2.45,2.86s2.44-.91,2.44-2.86V149.13h1.57v14c0,2.86-1.41,4.45-4,4.45S269.12,166,269.12,163.17Z"/>
          <path class="cls-1" d="M284,149.13h2.14l4.73,14.09V149.13h1.51v18.23H290.7l-5.18-15.54v15.54H284Z"/>
          <path class="cls-1" d="M294.94,163.17v-14h1.61v14.14c0,1.95.89,2.86,2.45,2.86s2.45-.91,2.45-2.86V149.13H303v14c0,2.86-1.41,4.45-4,4.45S294.94,166,294.94,163.17Z"/>
          <path class="cls-1" d="M305.56,149.13H308l3,15.23,3-15.23h2.42v18.23H314.9V151.48l-3.22,15.88h-1.41L307,151.48v15.88h-1.46Z"/>
          <path class="cls-1" d="M319.15,149.13h7.29v1.46h-5.68v6.54h4.66v1.45h-4.66v7.29h5.68v1.49h-7.29Zm4.34-4.71h1.85L323,147.65h-1.3Z"/>
          <path class="cls-1" d="M328.36,149.13h3.88c2.84,0,4,1.28,4,4.14v1.12c0,2-.7,3.26-2.21,3.67v.05c1.59.37,2.21,1.59,2.21,3.75v3.31a7.52,7.52,0,0,0,.26,2.19h-1.64a8.39,8.39,0,0,1-.23-2.22v-3.35c0-2.11-.78-2.84-2.71-2.84h-2v8.41h-1.61Zm3.57,8.31c1.85,0,2.73-.78,2.73-2.76V153.4c0-2-.7-2.81-2.47-2.81H330v6.85Z"/>
          <path class="cls-1" d="M338.75,149.13h1.61v18.23h-1.61Z"/>
          <path class="cls-1" d="M351.66,167.59v1.46h-.52a2.31,2.31,0,0,1-2.48-1.75,4.51,4.51,0,0,1-1.77.32c-2.62,0-4.08-1.57-4.08-4.45v-9.84c0-2.89,1.46-4.46,4.08-4.46s4.09,1.57,4.09,4.46v9.84a4.54,4.54,0,0,1-1.22,3.48c.23.68.7.94,1.53.94Zm-4.77-1.46c1.59,0,2.48-.91,2.48-2.86V153.22c0-1.95-.89-2.89-2.48-2.89s-2.47.94-2.47,2.89v10.05C344.42,165.22,345.31,166.13,346.89,166.13Z"/>
          <path class="cls-1" d="M353.32,163.17v-14h1.62v14.14c0,1.95.88,2.86,2.44,2.86s2.45-.91,2.45-2.86V149.13h1.56v14c0,2.86-1.4,4.45-4,4.45S353.32,166,353.32,163.17Z"/>
          <path class="cls-1" d="M363.94,149.13h7.29v1.46h-5.67v6.54h4.66v1.45h-4.66v7.29h5.67v1.49h-7.29Z"/>
        </g>
        <g id="logotype">
          <path class="cls-1" d="M0,121.08v49.08H146.18V121.08Zm95.32,5.71a.15.15,0,0,1-.08,0s0,0,0,0Zm-2.83,3.7h0l0,0h0Zm-71,33.28H7.39V128.48H12v34.33h9.55Zm14.14,0L34,155.63H25.66L24,163.77H22.28l6.64-35.29h4.63l6.71,35.29Zm42.05,0H73.18V137l-8.47,24-9.14-24v26.79H53.7V128.48h3.71l8.8,24.15,8.47-24.15h3Zm15.52,0-1.67-8.14H83.23l-1.67,8.14H79.85l6.63-35.29h4.63l6.72,35.29Zm24.69.7h-.58l-15.43-30.53v29.78h-2V128.48h4l12,24v-24h1.91Zm20.86-8.13a8.66,8.66,0,0,1-1,4.44,6.54,6.54,0,0,1-2.46,2.44,8.8,8.8,0,0,1-3.32,1.05,33,33,0,0,1-3.52.2q-7.73,0-7.72-6.79v-29.2h4.63v28.57a5.15,5.15,0,0,0,.54,2.33,6.73,6.73,0,0,0,3.53,3.24,6.56,6.56,0,0,0,2.48.48,4.47,4.47,0,0,0,3.61-1.5,5.85,5.85,0,0,0,1.27-3.92v-29.2h1.92Z"/>
          <polygon class="cls-1" points="83.52 154.63 91.11 154.63 87.48 132.44 83.52 154.63"/>
          <polygon class="cls-1" points="25.96 154.63 33.55 154.63 29.92 132.44 25.96 154.63"/>
        </g>
        <g>
          <polyline class="cls-1" points="193.17 34.95 191.96 33.08 194.06 31.72 195.42 33.82 193.17 34.95"/>
          <polyline class="cls-1" points="190.11 30.26 188.9 28.38 191.02 27.02 192.38 29.12 190.11 30.26"/>
          <polyline class="cls-1" points="201.67 25.84 200.43 23.96 202.56 22.6 203.91 24.7 201.67 25.84"/>
          <polyline class="cls-1" points="201.67 18.28 200.43 16.4 202.56 15.04 203.91 17.14 201.67 18.28"/>
          <polyline class="cls-1" points="213.3 6.03 212.07 4.15 214.19 2.77 215.55 4.89 213.3 6.03"/>
          <polyline class="cls-1" points="221.03 7.16 219.82 5.29 221.92 3.9 223.31 6.03 221.03 7.16"/>
          <polyline class="cls-1" points="193.89 27.37 192.68 25.49 194.78 24.13 196.16 26.23 193.89 27.37"/>
          <polyline class="cls-1" points="194.9 8.35 193.66 6.47 195.79 5.11 197.15 7.21 194.9 8.35"/>
          <polyline class="cls-1" points="210.41 16.95 209.2 15.07 211.3 13.69 212.69 15.81 210.41 16.95"/>
          <polyline class="cls-1" points="215.08 23.91 213.84 22.06 215.97 20.68 217.33 22.77 215.08 23.91"/>
          <polyline class="cls-1" points="199.54 15.34 198.33 13.46 200.43 12.08 201.82 14.18 199.54 15.34"/>
          <polyline class="cls-1" points="200.93 9.49 199.72 7.61 201.84 6.25 203.2 8.35 200.93 9.49"/>
          <polyline class="cls-1" points="203.27 12.97 202.04 11.09 204.16 9.73 205.52 11.83 203.27 12.97"/>
          <polyline class="cls-1" points="210.24 23.44 209.03 21.57 211.13 20.21 212.51 22.31 210.24 23.44"/>
          <polyline class="cls-1" points="207.92 19.96 206.71 18.08 208.81 16.7 210.19 18.82 207.92 19.96"/>
          <polyline class="cls-1" points="212.59 26.93 211.35 25.05 213.47 23.69 214.83 25.79 212.59 26.93"/>
          <polyline class="cls-1" points="215.2 15.93 213.97 14.05 216.09 12.7 217.45 14.8 215.2 15.93"/>
          <polyline class="cls-1" points="209.57 12.85 208.34 10.97 210.46 9.58 211.82 11.71 209.57 12.85"/>
          <polyline class="cls-1" points="221.03 18.63 219.82 16.75 221.92 15.37 223.31 17.49 221.03 18.63"/>
          <polyline class="cls-1" points="205.97 3.24 204.76 1.38 206.85 0 208.24 2.1 205.97 3.24"/>
          <polyline class="cls-1" points="197.67 34.21 196.46 32.34 198.56 30.98 199.94 33.08 197.67 34.21"/>
          <polyline class="cls-1" points="194.55 15.02 193.32 13.14 195.44 11.78 196.8 13.88 194.55 15.02"/>
          <polyline class="cls-1" points="200.68 32.16 199.44 30.29 201.57 28.93 202.93 31.02 200.68 32.16"/>
          <polyline class="cls-1" points="199.2 22.01 197.99 20.13 200.09 18.75 201.47 20.87 199.2 22.01"/>
          <polyline class="cls-1" points="198.75 29.17 197.52 27.3 199.64 25.94 201 28.04 198.75 29.17"/>
          <polyline class="cls-1" points="194.55 22.58 193.32 20.7 195.44 19.32 196.8 21.44 194.55 22.58"/>
          <polyline class="cls-1" points="206.31 25.27 205.1 23.39 207.2 22.01 208.58 24.13 206.31 25.27"/>
          <polyline class="cls-1" points="205.87 32.43 204.63 30.56 206.76 29.2 208.12 31.3 205.87 32.43"/>
        </g>
        <polygon class="cls-1" points="109.44 121.08 108.44 121.08 108.44 71.38 123.63 75.05 123.63 111.14 146.78 111.14 146.78 99.91 154.6 99.91 156.02 46.87 168.22 46.87 171.12 99.91 184.16 99.91 185.82 37.89 198.02 37.89 201.38 111.62 200.38 111.67 197.06 38.89 186.79 38.89 185.13 100.91 170.18 100.91 167.27 47.87 157 47.87 155.57 100.91 147.78 100.91 147.78 112.14 122.63 112.14 122.63 75.83 109.44 72.65 109.44 121.08"/>
      </g>
    </g>
  </g>
</svg>
